<svg xmlns="http://www.w3.org/2000/svg" xmlns:xlink="http://www.w3.org/1999/xlink" width="500" zoomAndPan="magnify" viewBox="0 0 375 374.999991" height="500" preserveAspectRatio="xMidYMid meet" version="1.0"><defs><g/><clipPath id="fe13488145"><path d="M 52.222656 144.578125 L 137.722656 144.578125 L 137.722656 230.078125 L 52.222656 230.078125 Z M 52.222656 144.578125 " clip-rule="nonzero"/></clipPath><clipPath id="fbd6b9f3ba"><path d="M 93 227 L 96 227 L 96 230.078125 L 93 230.078125 Z M 93 227 " clip-rule="nonzero"/></clipPath></defs><rect x="-37.5" width="450" fill="#ffffff" y="-37.499999" height="449.999989" fill-opacity="1"/><rect x="-37.5" width="450" fill="#ffffff" y="-37.499999" height="449.999989" fill-opacity="1"/><rect x="-37.5" width="450" fill="#ffffff" y="-37.499999" height="449.999989" fill-opacity="1"/><g clip-path="url(#fe13488145)"><path fill="#0e606e" d="M 107.644531 176.058594 L 106.242188 176.058594 L 106.242188 151.4375 C 106.242188 150.578125 105.648438 149.875 104.917969 149.875 L 85.03125 149.875 C 84.300781 149.875 83.707031 150.578125 83.707031 151.4375 L 83.707031 151.980469 C 81.871094 152.609375 80.148438 153.269531 78.402344 154.144531 L 78.402344 151.4375 C 78.402344 147.765625 81.285156 144.578125 85.03125 144.578125 L 104.917969 144.578125 C 108.660156 144.578125 111.546875 147.765625 111.546875 151.4375 L 111.546875 170.757812 L 116.398438 170.757812 L 116.730469 171.25 C 113.628906 172.710938 110.601562 174.328125 107.644531 176.0625 Z M 61.789062 203.894531 L 59.082031 203.894531 C 55.417969 203.894531 52.222656 201.011719 52.222656 197.265625 L 52.222656 177.382812 C 52.222656 173.636719 55.417969 170.753906 59.082031 170.753906 L 78.402344 170.753906 L 78.402344 165.898438 C 80.15625 164.699219 81.746094 163.644531 83.707031 162.742188 L 83.707031 176.058594 L 59.085938 176.058594 C 58.226562 176.058594 57.527344 176.652344 57.527344 177.382812 L 57.527344 197.265625 C 57.527344 197.996094 58.226562 198.589844 59.085938 198.589844 L 59.628906 198.589844 C 60.253906 200.40625 60.9375 202.175781 61.796875 203.894531 Z M 111.539062 220.507812 L 111.539062 223.214844 C 111.539062 226.886719 108.65625 230.078125 104.910156 230.078125 L 85.027344 230.078125 C 83.035156 230.078125 81.28125 229.175781 80.054688 227.734375 C 79.035156 226.535156 78.402344 224.9375 78.402344 223.214844 L 78.402344 203.902344 L 73.550781 203.902344 C 72.351562 202.148438 71.292969 200.558594 70.394531 198.597656 L 83.707031 198.597656 L 83.707031 223.214844 C 83.707031 224.074219 84.308594 224.777344 85.03125 224.777344 L 104.917969 224.777344 C 105.648438 224.777344 106.242188 224.074219 106.242188 223.214844 L 106.242188 222.671875 C 108.054688 222.050781 109.828125 221.367188 111.546875 220.507812 Z M 126.980469 169.683594 C 115.769531 175.492188 100.554688 189.15625 93.179688 198.539062 C 88.894531 192.832031 83.796875 185.886719 78.464844 182.257812 C 83.867188 183.714844 88.277344 186.628906 93.179688 188.8125 C 103.253906 181.019531 114.847656 173.726562 126.980469 169.683594 Z M 92.785156 176.121094 C 94.921875 176.121094 96.660156 177.851562 96.660156 179.992188 C 96.660156 182.132812 94.921875 183.867188 92.785156 183.867188 C 90.648438 183.867188 88.910156 182.132812 88.910156 179.992188 C 88.910156 177.855469 90.640625 176.121094 92.785156 176.121094 Z M 137.722656 177.386719 L 137.722656 197.273438 C 137.722656 201.015625 134.527344 203.902344 130.859375 203.902344 L 111.539062 203.902344 L 111.539062 208.753906 C 109.785156 209.953125 108.199219 211.011719 106.234375 211.910156 L 106.234375 198.597656 L 130.855469 198.597656 C 131.714844 198.597656 132.414062 198.003906 132.414062 197.273438 L 132.414062 177.386719 C 132.414062 176.65625 131.714844 176.0625 130.855469 176.0625 L 130.3125 176.0625 C 129.78125 174.519531 129.230469 173.046875 128.535156 171.5625 L 130.019531 170.757812 L 130.855469 170.757812 C 134.527344 170.757812 137.714844 173.640625 137.714844 177.386719 Z M 137.722656 177.386719 " fill-opacity="1" fill-rule="nonzero"/></g><path fill="#ff9700" d="M 118.914062 170.25 C 117.480469 168.242188 115.792969 166.414062 113.910156 164.824219 L 113.910156 158.230469 C 117.898438 160.832031 121.332031 164.242188 123.949219 168.210938 C 122.246094 168.835938 120.574219 169.519531 118.914062 170.25 Z M 123.003906 196.21875 C 123.894531 193.414062 124.375 190.421875 124.375 187.324219 C 124.375 183.109375 123.484375 179.113281 121.894531 175.484375 C 123.394531 174.480469 124.917969 173.535156 126.445312 172.675781 C 128.519531 177.125 129.679688 182.085938 129.679688 187.316406 C 129.679688 190.394531 129.277344 193.375 128.53125 196.214844 L 123.011719 196.214844 Z M 86.070312 215.359375 C 88.878906 216.25 91.867188 216.730469 94.96875 216.730469 C 103.996094 216.730469 112.066406 212.664062 117.460938 206.261719 L 124.058594 206.261719 C 117.644531 216.089844 106.753906 222.027344 94.96875 222.027344 C 91.890625 222.027344 88.910156 221.628906 86.070312 220.875 L 86.070312 215.355469 Z M 66.933594 178.425781 C 66.042969 181.234375 65.5625 184.222656 65.5625 187.324219 C 65.5625 196.351562 69.628906 204.421875 76.03125 209.816406 L 76.03125 216.414062 C 66.203125 210 60.265625 199.109375 60.265625 187.320312 C 60.265625 184.242188 60.664062 181.261719 61.410156 178.421875 L 66.933594 178.421875 Z M 94.96875 152.613281 C 98.046875 152.613281 101.027344 153.015625 103.867188 153.761719 L 103.867188 159.28125 C 101.058594 158.394531 98.066406 157.914062 94.96875 157.914062 C 85.941406 157.914062 77.871094 161.980469 72.476562 168.382812 L 65.878906 168.382812 C 72.304688 158.535156 83.210938 152.613281 94.972656 152.613281 Z M 94.96875 152.613281 " fill-opacity="1" fill-rule="nonzero"/><g clip-path="url(#fbd6b9f3ba)"><path fill="#333333" d="M 93.996094 230.0625 L 94.015625 230.078125 C 94.640625 229.265625 95.292969 228.453125 95.949219 227.640625 C 95.296875 228.449219 94.617188 229.253906 93.996094 230.0625 Z M 93.996094 230.0625 " fill-opacity="1" fill-rule="nonzero"/></g><g fill="#0e606e" fill-opacity="1"><g transform="translate(146.888798, 190.062498)"><g><path d="M 7.71875 0 L 7.71875 -9.496094 L 13.566406 -9.496094 C 18.085938 -9.496094 21.347656 -12.335938 21.347656 -17.214844 C 21.347656 -22.574219 18.085938 -24.644531 13.566406 -24.644531 L 1.9375 -24.644531 L 1.9375 0 Z M 7.71875 -19.476562 L 12.757812 -19.476562 C 14.628906 -19.476562 15.632812 -18.636719 15.632812 -17.019531 C 15.632812 -15.339844 14.628906 -14.5 12.757812 -14.5 L 7.71875 -14.5 Z M 7.71875 -19.476562 "/></g></g></g><g fill="#0e606e" fill-opacity="1"><g transform="translate(168.140314, 190.062498)"><g><path d="M 7.203125 0 L 7.203125 -10.304688 C 7.203125 -11.886719 7.429688 -12.789062 7.878906 -13.402344 C 8.363281 -14.082031 9.171875 -14.339844 10.304688 -14.339844 C 11.207031 -14.339844 11.851562 -14.144531 12.304688 -13.660156 C 12.855469 -13.082031 13.082031 -12.113281 13.082031 -10.304688 L 13.082031 0 L 18.507812 0 L 18.507812 -10.238281 C 18.507812 -12.5 18.507812 -13.953125 17.796875 -15.535156 C 17.054688 -17.214844 15.503906 -18.699219 11.886719 -18.699219 C 9.949219 -18.699219 8.429688 -18.183594 7.203125 -16.34375 L 7.203125 -24.644531 L 1.777344 -24.644531 L 1.777344 0 Z M 7.203125 0 "/></g></g></g><g fill="#0e606e" fill-opacity="1"><g transform="translate(187.486302, 190.062498)"><g><path d="M 7.074219 0.386719 C 8.589844 0.386719 10.042969 0.160156 11.109375 -0.582031 C 11.691406 -0.96875 12.113281 -1.519531 12.402344 -2.226562 L 12.402344 0 L 17.828125 0 L 17.828125 -8.6875 C 17.828125 -12.078125 17.828125 -14.953125 15.566406 -16.890625 C 14.113281 -18.152344 12.015625 -18.699219 9.882812 -18.699219 C 6.199219 -18.699219 2.421875 -16.792969 1.742188 -12.207031 L 7.136719 -12.207031 C 7.394531 -13.757812 8.589844 -14.628906 9.851562 -14.628906 C 10.65625 -14.628906 11.273438 -14.4375 11.691406 -13.984375 C 12.113281 -13.5 12.371094 -12.789062 12.433594 -11.851562 L 7.6875 -11.011719 C 6.296875 -10.753906 4.652344 -10.398438 3.359375 -9.558594 C 2.035156 -8.6875 1.066406 -7.332031 1.066406 -5.136719 C 1.066406 -1.453125 3.777344 0.386719 7.074219 0.386719 Z M 8.65625 -3.714844 C 7.492188 -3.714844 6.492188 -4.167969 6.492188 -5.328125 C 6.492188 -5.847656 6.683594 -6.199219 6.976562 -6.492188 C 7.429688 -6.910156 8.007812 -7.136719 9.203125 -7.363281 L 12.53125 -8.007812 C 12.464844 -6.007812 12.113281 -4.84375 10.625 -4.167969 C 9.980469 -3.875 9.269531 -3.714844 8.65625 -3.714844 Z M 8.65625 -3.714844 "/></g></g></g><g fill="#0e606e" fill-opacity="1"><g transform="translate(206.089452, 190.062498)"><g><path d="M 7.203125 0 L 7.203125 -7.71875 C 7.203125 -10.207031 7.621094 -11.660156 8.558594 -12.5625 C 9.203125 -13.175781 10.140625 -13.53125 11.660156 -13.53125 L 12.691406 -13.53125 L 12.691406 -18.699219 L 11.886719 -18.699219 C 9.949219 -18.699219 8.429688 -18.183594 7.203125 -16.34375 L 7.203125 -18.3125 L 1.777344 -18.3125 L 1.777344 0 Z M 7.203125 0 "/></g></g></g><g fill="#0e606e" fill-opacity="1"><g transform="translate(218.523848, 190.062498)"><g><path d="M 7.203125 0 L 7.203125 -10.59375 C 7.203125 -12.242188 7.429688 -13.082031 7.914062 -13.660156 C 8.269531 -14.113281 8.847656 -14.339844 9.59375 -14.339844 C 11.175781 -14.339844 11.980469 -13.628906 11.980469 -11.59375 L 11.980469 0 L 17.40625 0 L 17.40625 -10.59375 C 17.40625 -12.046875 17.570312 -13.046875 18.117188 -13.695312 C 18.472656 -14.113281 19.054688 -14.339844 19.832031 -14.339844 C 21.347656 -14.339844 22.15625 -13.628906 22.15625 -11.59375 L 22.15625 0 L 27.582031 0 L 27.582031 -12.078125 C 27.582031 -16.050781 25.742188 -18.699219 21.605469 -18.699219 C 19.121094 -18.699219 17.601562 -17.730469 16.535156 -16.050781 C 15.890625 -17.796875 14.308594 -18.699219 11.886719 -18.699219 C 10.078125 -18.699219 8.363281 -18.054688 7.203125 -16.34375 L 7.203125 -18.3125 L 1.777344 -18.3125 L 1.777344 0 Z M 7.203125 0 "/></g></g></g><g fill="#0e606e" fill-opacity="1"><g transform="translate(246.945323, 190.062498)"><g><path d="M 7.074219 0.386719 C 8.589844 0.386719 10.042969 0.160156 11.109375 -0.582031 C 11.691406 -0.96875 12.113281 -1.519531 12.402344 -2.226562 L 12.402344 0 L 17.828125 0 L 17.828125 -8.6875 C 17.828125 -12.078125 17.828125 -14.953125 15.566406 -16.890625 C 14.113281 -18.152344 12.015625 -18.699219 9.882812 -18.699219 C 6.199219 -18.699219 2.421875 -16.792969 1.742188 -12.207031 L 7.136719 -12.207031 C 7.394531 -13.757812 8.589844 -14.628906 9.851562 -14.628906 C 10.65625 -14.628906 11.273438 -14.4375 11.691406 -13.984375 C 12.113281 -13.5 12.371094 -12.789062 12.433594 -11.851562 L 7.6875 -11.011719 C 6.296875 -10.753906 4.652344 -10.398438 3.359375 -9.558594 C 2.035156 -8.6875 1.066406 -7.332031 1.066406 -5.136719 C 1.066406 -1.453125 3.777344 0.386719 7.074219 0.386719 Z M 8.65625 -3.714844 C 7.492188 -3.714844 6.492188 -4.167969 6.492188 -5.328125 C 6.492188 -5.847656 6.683594 -6.199219 6.976562 -6.492188 C 7.429688 -6.910156 8.007812 -7.136719 9.203125 -7.363281 L 12.53125 -8.007812 C 12.464844 -6.007812 12.113281 -4.84375 10.625 -4.167969 C 9.980469 -3.875 9.269531 -3.714844 8.65625 -3.714844 Z M 8.65625 -3.714844 "/></g></g></g><g fill="#0e606e" fill-opacity="1"><g transform="translate(265.548473, 190.062498)"><g><path d="M 12.464844 0 C 13.4375 0 16.792969 0 19.183594 -1.808594 C 20.574219 -2.875 21.640625 -4.875 21.640625 -7.300781 C 21.640625 -10.304688 20.023438 -12.304688 17.085938 -12.949219 C 19.21875 -13.824219 20.378906 -15.761719 20.378906 -18.472656 C 20.378906 -20.21875 19.894531 -21.511719 18.925781 -22.511719 C 17.570312 -23.933594 15.246094 -24.644531 12.015625 -24.644531 L 1.9375 -24.644531 L 1.9375 0 Z M 7.71875 -19.476562 L 10.753906 -19.476562 C 12.433594 -19.476562 13.273438 -19.3125 13.824219 -18.894531 C 14.339844 -18.507812 14.597656 -17.925781 14.597656 -17.117188 C 14.597656 -15.503906 13.566406 -14.695312 11.53125 -14.695312 L 7.71875 -14.695312 Z M 7.71875 -10.171875 L 12.144531 -10.171875 C 14.5 -10.171875 15.859375 -9.816406 15.859375 -7.785156 C 15.859375 -6.878906 15.597656 -6.296875 15.113281 -5.910156 C 14.371094 -5.296875 13.175781 -5.167969 11.722656 -5.167969 L 7.71875 -5.167969 Z M 7.71875 -10.171875 "/></g></g></g><g fill="#0e606e" fill-opacity="1"><g transform="translate(287.445931, 190.062498)"><g><path d="M 7.203125 0 L 7.203125 -7.71875 C 7.203125 -10.207031 7.621094 -11.660156 8.558594 -12.5625 C 9.203125 -13.175781 10.140625 -13.53125 11.660156 -13.53125 L 12.691406 -13.53125 L 12.691406 -18.699219 L 11.886719 -18.699219 C 9.949219 -18.699219 8.429688 -18.183594 7.203125 -16.34375 L 7.203125 -18.3125 L 1.777344 -18.3125 L 1.777344 0 Z M 7.203125 0 "/></g></g></g><g fill="#0e606e" fill-opacity="1"><g transform="translate(299.880327, 190.062498)"><g><path d="M 10.65625 0.386719 C 16.472656 0.386719 20.28125 -3.457031 20.28125 -9.269531 C 20.28125 -14.855469 16.40625 -18.699219 10.65625 -18.699219 C 4.910156 -18.699219 1.035156 -14.890625 1.035156 -9.269531 C 1.035156 -3.421875 4.941406 0.386719 10.65625 0.386719 Z M 10.65625 -4.261719 C 8.234375 -4.261719 6.621094 -6.199219 6.621094 -9.269531 C 6.621094 -12.144531 8.234375 -14.082031 10.65625 -14.082031 C 13.113281 -14.082031 14.628906 -12.113281 14.628906 -9.269531 C 14.628906 -6.265625 13.113281 -4.261719 10.65625 -4.261719 Z M 10.65625 -4.261719 "/></g></g></g><g fill="#0e606e" fill-opacity="1"><g transform="translate(147.830517, 204.866251)"><g><path d="M 4.445312 0 L 4.445312 -3.1875 L 7.449219 -8.210938 L 5.867188 -8.210938 L 3.714844 -4.519531 L 1.582031 -8.210938 L -0.0117188 -8.210938 L 3.011719 -3.1875 L 3.011719 0 Z M 4.445312 0 "/></g></g></g><g fill="#0e606e" fill-opacity="1"><g transform="translate(155.270414, 204.866251)"><g><path d="M 3.476562 0.117188 C 5.285156 0.117188 6.511719 -1.183594 6.511719 -3.035156 C 6.511719 -4.84375 5.261719 -6.125 3.476562 -6.125 C 1.691406 -6.125 0.453125 -4.84375 0.453125 -3.035156 C 0.453125 -1.164062 1.691406 0.117188 3.476562 0.117188 Z M 3.476562 -0.988281 C 2.476562 -0.988281 1.742188 -1.820312 1.742188 -3.035156 C 1.742188 -4.199219 2.464844 -5.027344 3.476562 -5.027344 C 4.488281 -5.027344 5.210938 -4.175781 5.210938 -3.035156 C 5.210938 -1.839844 4.488281 -0.988281 3.476562 -0.988281 Z M 3.476562 -0.988281 "/></g></g></g><g fill="#0e606e" fill-opacity="1"><g transform="translate(162.226498, 204.866251)"><g><path d="M 2.765625 0.117188 C 3.464844 0.117188 3.960938 -0.160156 4.457031 -0.816406 L 4.457031 0 L 5.726562 0 L 5.726562 -6.015625 L 4.457031 -6.015625 L 4.457031 -3.109375 C 4.457031 -2.183594 4.335938 -1.667969 4.035156 -1.335938 C 3.808594 -1.085938 3.496094 -0.945312 3.066406 -0.945312 C 2.691406 -0.945312 2.421875 -1.042969 2.25 -1.238281 C 2.035156 -1.472656 1.9375 -1.863281 1.9375 -2.484375 L 1.9375 -6.015625 L 0.667969 -6.015625 L 0.667969 -2.496094 C 0.667969 -1.691406 0.730469 -1.257812 0.925781 -0.871094 C 1.25 -0.214844 1.863281 0.117188 2.765625 0.117188 Z M 2.765625 0.117188 "/></g></g></g><g fill="#0e606e" fill-opacity="1"><g transform="translate(168.634265, 204.866251)"><g><path d="M 1.96875 0 L 1.96875 -2.90625 C 1.96875 -3.679688 2.132812 -4.1875 2.464844 -4.5 C 2.722656 -4.757812 3.078125 -4.886719 3.574219 -4.886719 L 3.894531 -4.886719 L 3.894531 -6.125 L 3.757812 -6.125 C 3.011719 -6.125 2.464844 -5.910156 1.96875 -5.261719 L 1.96875 -6.015625 L 0.699219 -6.015625 L 0.699219 0 Z M 1.96875 0 "/></g></g></g><g fill="#0e606e" fill-opacity="1"><g transform="translate(172.741262, 204.866251)"><g/></g></g><g fill="#0e606e" fill-opacity="1"><g transform="translate(175.66561, 204.866251)"><g><path d="M 2.132812 0 L 2.132812 -3.347656 L 4.15625 -3.347656 C 5.703125 -3.347656 6.75 -4.261719 6.75 -5.8125 C 6.75 -7.480469 5.695312 -8.210938 4.15625 -8.210938 L 0.765625 -8.210938 L 0.765625 0 Z M 2.132812 -6.984375 L 3.972656 -6.984375 C 4.886719 -6.984375 5.402344 -6.554688 5.402344 -5.769531 C 5.402344 -4.972656 4.898438 -4.542969 3.972656 -4.542969 L 2.132812 -4.542969 Z M 2.132812 -6.984375 "/></g></g></g><g fill="#0e606e" fill-opacity="1"><g transform="translate(182.729207, 204.866251)"><g><path d="M 1.96875 0 L 1.96875 -2.894531 C 1.96875 -3.84375 2.097656 -4.347656 2.390625 -4.671875 C 2.605469 -4.929688 2.917969 -5.058594 3.359375 -5.058594 C 3.722656 -5.058594 3.992188 -4.972656 4.175781 -4.769531 C 4.390625 -4.53125 4.488281 -4.144531 4.488281 -3.519531 L 4.488281 0 L 5.757812 0 L 5.757812 -3.519531 C 5.757812 -4.046875 5.757812 -4.605469 5.5 -5.144531 C 5.21875 -5.695312 4.703125 -6.125 3.660156 -6.125 C 3.011719 -6.125 2.496094 -5.910156 1.96875 -5.199219 L 1.96875 -8.210938 L 0.699219 -8.210938 L 0.699219 0 Z M 1.96875 0 "/></g></g></g><g fill="#0e606e" fill-opacity="1"><g transform="translate(189.136974, 204.866251)"><g><path d="M 2.410156 0.117188 C 2.949219 0.117188 3.421875 0.03125 3.800781 -0.214844 C 4.035156 -0.367188 4.242188 -0.582031 4.402344 -0.859375 L 4.402344 0 L 5.671875 0 L 5.671875 -3.261719 C 5.671875 -3.949219 5.671875 -4.898438 5.003906 -5.519531 C 4.550781 -5.929688 3.894531 -6.125 3.195312 -6.125 C 2.023438 -6.125 0.894531 -5.476562 0.679688 -4.121094 L 1.949219 -4.121094 C 2.066406 -4.734375 2.582031 -5.101562 3.1875 -5.101562 C 3.574219 -5.101562 3.875 -4.984375 4.089844 -4.769531 C 4.292969 -4.550781 4.402344 -4.25 4.414062 -3.84375 L 2.507812 -3.488281 C 1.957031 -3.378906 1.472656 -3.230469 1.109375 -2.960938 C 0.699219 -2.660156 0.453125 -2.226562 0.453125 -1.636719 C 0.453125 -0.515625 1.257812 0.117188 2.410156 0.117188 Z M 2.691406 -0.914062 C 2.121094 -0.914062 1.722656 -1.183594 1.722656 -1.667969 C 1.722656 -1.894531 1.796875 -2.066406 1.9375 -2.207031 C 2.121094 -2.378906 2.390625 -2.484375 2.820312 -2.574219 L 4.421875 -2.882812 C 4.421875 -2.023438 4.230469 -1.453125 3.519531 -1.097656 C 3.273438 -0.980469 2.992188 -0.914062 2.691406 -0.914062 Z M 2.691406 -0.914062 "/></g></g></g><g fill="#0e606e" fill-opacity="1"><g transform="translate(195.437229, 204.866251)"><g><path d="M 1.96875 0 L 1.96875 -2.90625 C 1.96875 -3.679688 2.132812 -4.1875 2.464844 -4.5 C 2.722656 -4.757812 3.078125 -4.886719 3.574219 -4.886719 L 3.894531 -4.886719 L 3.894531 -6.125 L 3.757812 -6.125 C 3.011719 -6.125 2.464844 -5.910156 1.96875 -5.261719 L 1.96875 -6.015625 L 0.699219 -6.015625 L 0.699219 0 Z M 1.96875 0 "/></g></g></g><g fill="#0e606e" fill-opacity="1"><g transform="translate(199.544225, 204.866251)"><g><path d="M 1.96875 0 L 1.96875 -3.023438 C 1.96875 -3.929688 2.109375 -4.402344 2.390625 -4.714844 C 2.574219 -4.941406 2.851562 -5.058594 3.1875 -5.058594 C 3.84375 -5.058594 4.242188 -4.617188 4.242188 -3.746094 L 4.242188 0 L 5.511719 0 L 5.511719 -3.023438 C 5.511719 -3.832031 5.605469 -4.378906 5.929688 -4.734375 C 6.113281 -4.941406 6.382812 -5.058594 6.75 -5.058594 C 7.394531 -5.058594 7.78125 -4.628906 7.78125 -3.746094 L 7.78125 0 L 9.050781 0 L 9.050781 -3.9375 C 9.050781 -5.296875 8.425781 -6.125 7.058594 -6.125 C 6.296875 -6.125 5.660156 -5.855469 5.261719 -5.113281 C 5.058594 -5.789062 4.433594 -6.125 3.648438 -6.125 C 3.023438 -6.125 2.484375 -5.886719 1.96875 -5.199219 L 1.96875 -6.015625 L 0.699219 -6.015625 L 0.699219 0 Z M 1.96875 0 "/></g></g></g><g fill="#0e606e" fill-opacity="1"><g transform="translate(209.231142, 204.866251)"><g><path d="M 2.410156 0.117188 C 2.949219 0.117188 3.421875 0.03125 3.800781 -0.214844 C 4.035156 -0.367188 4.242188 -0.582031 4.402344 -0.859375 L 4.402344 0 L 5.671875 0 L 5.671875 -3.261719 C 5.671875 -3.949219 5.671875 -4.898438 5.003906 -5.519531 C 4.550781 -5.929688 3.894531 -6.125 3.195312 -6.125 C 2.023438 -6.125 0.894531 -5.476562 0.679688 -4.121094 L 1.949219 -4.121094 C 2.066406 -4.734375 2.582031 -5.101562 3.1875 -5.101562 C 3.574219 -5.101562 3.875 -4.984375 4.089844 -4.769531 C 4.292969 -4.550781 4.402344 -4.25 4.414062 -3.84375 L 2.507812 -3.488281 C 1.957031 -3.378906 1.472656 -3.230469 1.109375 -2.960938 C 0.699219 -2.660156 0.453125 -2.226562 0.453125 -1.636719 C 0.453125 -0.515625 1.257812 0.117188 2.410156 0.117188 Z M 2.691406 -0.914062 C 2.121094 -0.914062 1.722656 -1.183594 1.722656 -1.667969 C 1.722656 -1.894531 1.796875 -2.066406 1.9375 -2.207031 C 2.121094 -2.378906 2.390625 -2.484375 2.820312 -2.574219 L 4.421875 -2.882812 C 4.421875 -2.023438 4.230469 -1.453125 3.519531 -1.097656 C 3.273438 -0.980469 2.992188 -0.914062 2.691406 -0.914062 Z M 2.691406 -0.914062 "/></g></g></g><g fill="#0e606e" fill-opacity="1"><g transform="translate(215.531396, 204.866251)"><g><path d="M 3.445312 0.117188 C 4.863281 0.117188 5.953125 -0.667969 6.230469 -1.992188 L 4.855469 -1.992188 C 4.691406 -1.355469 4.1875 -0.945312 3.445312 -0.945312 C 2.441406 -0.945312 1.742188 -1.777344 1.742188 -3.035156 C 1.742188 -4.25 2.441406 -5.070312 3.445312 -5.070312 C 4.121094 -5.070312 4.617188 -4.726562 4.820312 -4.121094 L 6.199219 -4.121094 C 5.917969 -5.347656 4.863281 -6.125 3.445312 -6.125 C 1.65625 -6.125 0.453125 -4.84375 0.453125 -3.035156 C 0.453125 -1.164062 1.667969 0.117188 3.445312 0.117188 Z M 3.445312 0.117188 "/></g></g></g><g fill="#0e606e" fill-opacity="1"><g transform="translate(222.132691, 204.866251)"><g><path d="M 1.722656 2.195312 C 2.617188 2.195312 3.046875 1.882812 3.402344 0.871094 L 5.855469 -6.015625 L 4.476562 -6.015625 L 3.078125 -1.507812 L 1.527344 -6.015625 L 0.152344 -6.015625 L 2.410156 -0.0234375 L 2.195312 0.558594 C 2 1.054688 1.796875 1.109375 1.386719 1.109375 L 0.753906 1.109375 L 0.753906 2.195312 Z M 1.722656 2.195312 "/></g></g></g><g fill="#0e606e" fill-opacity="1"><g transform="translate(228.153415, 204.866251)"><g/></g></g><g fill="#0e606e" fill-opacity="1"><g transform="translate(231.077763, 204.866251)"><g><path d="M 4.101562 0 C 4.648438 0 5.648438 -0.0859375 6.316406 -0.679688 C 6.714844 -1.035156 7.007812 -1.605469 7.007812 -2.355469 C 7.007812 -3.453125 6.402344 -4.175781 5.316406 -4.304688 C 6.125 -4.476562 6.597656 -5.210938 6.597656 -6.15625 C 6.597656 -6.75 6.425781 -7.222656 6.070312 -7.566406 C 5.648438 -7.984375 4.960938 -8.210938 3.960938 -8.210938 L 0.765625 -8.210938 L 0.765625 0 Z M 2.132812 -6.984375 L 3.671875 -6.984375 C 4.25 -6.984375 4.660156 -6.898438 4.917969 -6.660156 C 5.113281 -6.480469 5.230469 -6.230469 5.230469 -5.875 C 5.230469 -5.15625 4.757812 -4.746094 3.894531 -4.746094 L 2.132812 -4.746094 Z M 2.132812 -3.617188 L 4.121094 -3.617188 C 4.714844 -3.617188 5.648438 -3.574219 5.648438 -2.464844 C 5.648438 -2.042969 5.511719 -1.765625 5.304688 -1.582031 C 4.929688 -1.238281 4.328125 -1.226562 3.9375 -1.226562 L 2.132812 -1.226562 Z M 2.132812 -3.617188 "/></g></g></g><g fill="#0e606e" fill-opacity="1"><g transform="translate(238.549912, 204.866251)"><g><path d="M 2.765625 0.117188 C 3.464844 0.117188 3.960938 -0.160156 4.457031 -0.816406 L 4.457031 0 L 5.726562 0 L 5.726562 -6.015625 L 4.457031 -6.015625 L 4.457031 -3.109375 C 4.457031 -2.183594 4.335938 -1.667969 4.035156 -1.335938 C 3.808594 -1.085938 3.496094 -0.945312 3.066406 -0.945312 C 2.691406 -0.945312 2.421875 -1.042969 2.25 -1.238281 C 2.035156 -1.472656 1.9375 -1.863281 1.9375 -2.484375 L 1.9375 -6.015625 L 0.667969 -6.015625 L 0.667969 -2.496094 C 0.667969 -1.691406 0.730469 -1.257812 0.925781 -0.871094 C 1.25 -0.214844 1.863281 0.117188 2.765625 0.117188 Z M 2.765625 0.117188 "/></g></g></g><g fill="#0e606e" fill-opacity="1"><g transform="translate(244.957679, 204.866251)"><g><path d="M 3.121094 0.117188 C 3.875 0.117188 4.390625 -0.109375 4.917969 -0.816406 L 4.917969 0 L 6.1875 0 L 6.1875 -8.210938 L 4.917969 -8.210938 L 4.917969 -5.199219 C 4.378906 -5.917969 3.851562 -6.125 3.121094 -6.125 C 1.539062 -6.125 0.472656 -4.84375 0.472656 -3.003906 C 0.472656 -1.164062 1.539062 0.117188 3.121094 0.117188 Z M 3.378906 -0.980469 C 2.378906 -0.980469 1.753906 -1.839844 1.753906 -3.003906 C 1.753906 -4.164062 2.378906 -5.027344 3.378906 -5.027344 C 4.359375 -5.027344 5.046875 -4.1875 5.046875 -3.003906 C 5.046875 -1.820312 4.359375 -0.980469 3.378906 -0.980469 Z M 3.378906 -0.980469 "/></g></g></g><g fill="#0e606e" fill-opacity="1"><g transform="translate(251.838504, 204.866251)"><g><path d="M 3.121094 0.117188 C 3.875 0.117188 4.390625 -0.109375 4.917969 -0.816406 L 4.917969 0 L 6.1875 0 L 6.1875 -8.210938 L 4.917969 -8.210938 L 4.917969 -5.199219 C 4.378906 -5.917969 3.851562 -6.125 3.121094 -6.125 C 1.539062 -6.125 0.472656 -4.84375 0.472656 -3.003906 C 0.472656 -1.164062 1.539062 0.117188 3.121094 0.117188 Z M 3.378906 -0.980469 C 2.378906 -0.980469 1.753906 -1.839844 1.753906 -3.003906 C 1.753906 -4.164062 2.378906 -5.027344 3.378906 -5.027344 C 4.359375 -5.027344 5.046875 -4.1875 5.046875 -3.003906 C 5.046875 -1.820312 4.359375 -0.980469 3.378906 -0.980469 Z M 3.378906 -0.980469 "/></g></g></g><g fill="#0e606e" fill-opacity="1"><g transform="translate(258.719328, 204.866251)"><g><path d="M 1.722656 2.195312 C 2.617188 2.195312 3.046875 1.882812 3.402344 0.871094 L 5.855469 -6.015625 L 4.476562 -6.015625 L 3.078125 -1.507812 L 1.527344 -6.015625 L 0.152344 -6.015625 L 2.410156 -0.0234375 L 2.195312 0.558594 C 2 1.054688 1.796875 1.109375 1.386719 1.109375 L 0.753906 1.109375 L 0.753906 2.195312 Z M 1.722656 2.195312 "/></g></g></g></svg>